<svg xmlns="http://www.w3.org/2000/svg" xmlns:xlink="http://www.w3.org/1999/xlink" alt="Company Logo" data-tenant-branding-logo="true" width="192" height="64" viewBox="0 0 192 64">
<defs>
    <clipPath id="clip-Web_1920_9">
        <rect width="192" height="64"/>
    </clipPath>
</defs>
<g id="Web_1920_9" data-name="Web 1920 – 9" clip-path="url(#clip-Web_1920_9)">
    <g id="Capa_2-2" transform="translate(20.002 18.995)">
        <g id="Capa_1-2" transform="translate(-0.003 0.004)">
            <g id="Grupo_7686" data-name="Grupo 7686" transform="translate(0)">
                <path id="Trazado_6700" data-name="Trazado 6700" d="M170.883,53.073l-.541-2.375h-5.134l-1.293,2.375H160.5l7.1-12.813h3.9l3.146,12.813ZM169.242,45.8a10.385,10.385,0,0,1-.34-2.129h-.045a17.775,17.775,0,0,1-1.074,2.279l-1.363,2.407h3.441l-.621-2.56h0Z" transform="translate(-115.003 -28.849)" fill="#d71920"/>
                <path id="Trazado_6701" data-name="Trazado 6701" d="M225.21,53.065,222.6,47.544a23.666,23.666,0,0,1-1.089-2.815c-.085.95-.247,2.242-.445,3.455l-.791,4.878H216.97l2.078-12.813h4.408l2.443,5.071c.488,1.04.927,2.163,1.3,3.146.068-1.1.3-2.789.5-4.005l.68-4.212h3.308L229.6,53.063H225.21Z" transform="translate(-155.466 -28.842)" fill="#d71920"/>
                <path id="Trazado_6702" data-name="Trazado 6702" d="M330.425,52.836l-2.716-5.012h-.133l-.808,5.012H323.33l2.078-12.813c1.27-.074,2.88-.094,4.666-.094,3.5,0,5.445,1.08,5.006,3.8a4.634,4.634,0,0,1-3.861,3.549c.315.5.609.967.913,1.443l2.483,4.122h-4.19Zm-1.012-10.48c-.352,0-.751.02-.952.037l-.533,3.283c.173.017.522.037.853.037,1.454,0,2.486-.663,2.662-1.746.162-1.006-.422-1.613-2.03-1.613" transform="translate(-231.677 -28.613)" fill="#d71920"/>
                <path id="Trazado_6703" data-name="Trazado 6703" d="M369.39,53.073l2.078-12.813h8.379l-.405,2.483h-4.935l-.414,2.546h4.672l-.391,2.412H373.7l-.456,2.826h4.935l-.408,2.546Z" transform="translate(-264.68 -28.849)" fill="#d71920"/>
                <path id="Trazado_6704" data-name="Trazado 6704" d="M415.643,53.073,415.1,50.7h-5.136l-1.29,2.375H405.26l7.1-12.813h3.9l3.146,12.813ZM414,45.8a11.028,11.028,0,0,1-.337-2.129h-.045a17.767,17.767,0,0,1-1.074,2.279l-1.361,2.407h3.438L414,45.8h0Z" transform="translate(-290.383 -28.849)" fill="#d71920"/>
                <path id="Trazado_6705" data-name="Trazado 6705" d="M468.346,53.065l-2.611-5.522a23.666,23.666,0,0,1-1.086-2.815c-.088.95-.255,2.242-.451,3.455l-.794,4.878H460.1l2.078-12.813h4.411l2.441,5.071c.493,1.04.927,2.163,1.3,3.146.068-1.1.3-2.789.493-4.005l.686-4.212h3.305l-2.081,12.813h-4.385Z" transform="translate(-329.677 -28.842)" fill="#d71920"/>
                <path id="Trazado_6706" data-name="Trazado 6706" d="M516.8,53.073l2.081-12.813h3.438l-2.081,12.813Z" transform="translate(-370.305 -28.849)" fill="#d71920"/>
                <path id="Trazado_6707" data-name="Trazado 6707" d="M37.7,6.18a8.723,8.723,0,0,0-4.81-4.751A18.726,18.726,0,0,0,24.727.015a31.857,31.857,0,0,0-18.6,7.021A18.708,18.708,0,0,0,.945,13.49a8.711,8.711,0,0,0-.471,6.746c1.134,3.008,4.153,5.091,8.5,5.859A27.855,27.855,0,0,0,23.3,24.381a30.874,30.874,0,0,0,8.739-5,18.7,18.7,0,0,0,5.185-6.454,9.884,9.884,0,0,0,.947-4.082A7.606,7.606,0,0,0,37.7,6.183M14.041,23.842c-.621-.193-.768-.641-.23-1.562l2.767-4.674h7.6l.663,2.951a1.431,1.431,0,0,1-.51,1.389l-.527.207a24.977,24.977,0,0,1-9.763,1.687m3.643-7.957L22.032,8.7l1.732,7.183Zm12.674,2.684a.676.676,0,0,1-.933-.213.665.665,0,0,1-.082-.19L26.1,5.681S25.651,3.5,23.735,3.5h-.522l-2.721,4.62L11.773,22.037a1.912,1.912,0,0,1-1.817,1.12c-2.676-.833-4.671-2.4-5.5-4.595C2.464,13.3,7.9,6.367,16.595,3.079S33.957,1.395,35.944,6.665c1.423,3.764-.944,8.379-5.587,11.905" transform="translate(0.003 -0.004)" fill="#d71920"/>
                <path id="Trazado_6708" data-name="Trazado 6708" d="M279.8,40.253c-1.559-.011-3.243.037-4.147.062l-.437.008-2.149,12.83,1.329.048c.927.037,1.894.082,3.141.091a8.635,8.635,0,0,0,6.627-2.511,7.742,7.742,0,0,0,1.95-5.717c-.147-3.076-2.39-4.785-6.321-4.813m-2.015,10.3c-.213,0-.493-.017-.737-.04.108-.677,1.139-7.038,1.216-7.534.357-.017.8-.026,1.327-.023,2.565.02,2.965,1.182,3.019,2.319.088,1.84-.808,5.3-4.825,5.278" transform="translate(-195.664 -28.842)" fill="#d71920"/>
            </g>
        </g>
    </g>
</g>
</svg>