<?xml version="1.0" standalone="no"?>
<!DOCTYPE svg PUBLIC "-//W3C//DTD SVG 20010904//EN"
 "http://www.w3.org/TR/2001/REC-SVG-20010904/DTD/svg10.dtd">
<svg version="1.0" xmlns="http://www.w3.org/2000/svg"
 width="180.000000pt" height="55.000000pt" viewBox="0 0 180.000000 55.000000"
 preserveAspectRatio="xMidYMid meet">

<g transform="translate(0.000000,55.000000) scale(0.100000,-0.100000)"
fill="#000000" stroke="none">
<path d="M304 491 c-36 -16 -64 -60 -64 -102 0 -54 41 -98 97 -106 39 -5 46
-2 78 30 29 29 35 42 35 76 0 74 -80 130 -146 102z m74 -57 c41 -28 18 -104
-31 -104 -53 0 -77 75 -35 104 12 9 27 16 33 16 6 0 21 -7 33 -16z"/>
<path d="M704 477 c-24 -21 -29 -33 -29 -72 0 -37 5 -51 24 -66 31 -26 92 -25
116 1 25 28 12 36 -27 17 -48 -23 -73 -5 -73 54 0 38 3 45 27 53 21 8 32 6 46
-7 23 -21 42 -22 42 -3 0 20 -24 36 -62 43 -27 4 -41 0 -64 -20z"/>
<path d="M890 443 c-39 -14 -54 -78 -24 -107 20 -20 78 -21 94 0 42 49 -10
129 -70 107z m34 -29 c20 -8 21 -48 1 -64 -30 -25 -61 30 -33 58 14 14 12 14
32 6z"/>
<path d="M1196 426 c-30 -29 -33 -52 -10 -84 18 -26 75 -30 94 -7 18 22 4 31
-24 16 -24 -13 -46 -8 -46 10 0 5 20 9 45 9 37 0 45 3 45 18 0 27 -21 50 -52
57 -21 5 -33 1 -52 -19z m64 -21 c0 -9 -9 -15 -25 -15 -24 0 -32 10 -18 23 12
13 43 7 43 -8z"/>
<path d="M1335 425 c-29 -28 -31 -51 -9 -83 32 -46 114 -18 114 39 0 30 -9 43
-37 58 -31 16 -41 14 -68 -14z m63 -17 c15 -15 15 -30 -1 -52 -18 -25 -47 -11
-47 23 0 41 22 55 48 29z"/>
<path d="M7 433 c-4 -3 -7 -15 -7 -25 0 -16 9 -18 89 -18 89 0 101 5 101 41 0
10 -173 13 -183 2z"/>
<path d="M504 393 c-1 -60 -24 -105 -71 -138 -71 -48 -173 -26 -222 48 l-24
37 -89 0 c-101 0 -103 -2 -63 -79 95 -189 362 -202 476 -23 31 49 54 140 45
178 -5 17 -13 24 -29 24 -21 0 -23 -5 -23 -47z"/>
<path d="M1000 379 c0 -46 3 -59 15 -59 10 0 15 11 15 35 0 24 6 39 20 47 31
20 24 36 -15 36 l-35 0 0 -59z"/>
<path d="M1090 379 c0 -45 3 -59 14 -59 10 0 16 13 18 38 2 27 9 40 26 47 36
16 27 34 -18 33 l-40 0 0 -59z"/>
<path d="M719 243 c-21 -47 -49 -122 -49 -129 0 -2 7 -4 16 -4 9 0 18 9 21 20
8 29 82 29 90 0 3 -11 14 -20 24 -20 11 0 19 1 19 3 0 2 -15 41 -34 88 -41
102 -58 110 -87 42z m39 -61 c-27 -5 -30 1 -17 34 l11 29 13 -30 c12 -27 12
-30 -7 -33z"/>
<path d="M1474 279 c-7 -12 15 -31 28 -23 4 3 8 12 8 20 0 17 -26 19 -36 3z"/>
<path d="M1393 253 c-4 -10 -11 -22 -17 -26 -8 -6 -7 -10 2 -14 6 -2 12 -21
12 -42 0 -20 5 -42 12 -49 17 -17 58 -15 58 3 0 8 -7 15 -15 15 -10 0 -15 11
-15 35 0 24 5 35 15 35 8 0 15 5 15 10 0 6 -6 10 -14 10 -7 0 -16 9 -19 20 -6
25 -25 26 -34 3z"/>
<path d="M910 230 c-8 -5 -25 -7 -37 -3 -22 5 -23 3 -23 -57 0 -53 2 -61 18
-58 12 2 18 15 20 42 2 28 9 40 23 43 10 3 19 14 19 24 0 22 0 22 -20 9z"/>
<path d="M963 225 c-52 -37 -16 -122 47 -113 21 3 30 0 30 -9 0 -20 -28 -27
-55 -13 -36 19 -53 8 -27 -18 27 -27 62 -28 93 -3 19 16 24 30 27 90 4 66 3
71 -16 71 -11 0 -32 2 -48 6 -18 3 -37 -1 -51 -11z m65 -24 c8 -4 12 -19 10
-32 -4 -33 -53 -40 -63 -9 -11 36 22 61 53 41z"/>
<path d="M1114 214 c-20 -19 -24 -31 -19 -52 4 -15 11 -33 17 -39 16 -20 72
-16 93 7 18 19 17 20 -1 20 -11 0 -25 -5 -30 -10 -6 -6 -18 -8 -27 -4 -32 12
-17 24 28 24 38 0 45 3 45 20 0 26 -34 60 -60 60 -12 0 -32 -11 -46 -26z m69
-19 c-3 -13 -53 -20 -53 -7 0 15 13 23 35 20 11 -2 19 -7 18 -13z"/>
<path d="M1291 231 c-7 -5 -22 -6 -32 -4 -17 5 -19 -1 -19 -56 0 -48 3 -61 15
-61 11 0 15 11 15 38 0 46 12 65 36 60 15 -2 20 -14 22 -51 2 -33 7 -47 18
-47 10 0 14 13 14 49 0 66 -30 97 -69 72z"/>
<path d="M1581 231 c-7 -5 -22 -6 -32 -4 -17 5 -19 -1 -19 -56 0 -48 3 -61 15
-61 10 0 15 10 15 33 0 41 21 73 44 64 11 -5 16 -19 16 -52 0 -33 4 -45 15
-45 12 0 15 13 15 55 0 43 -4 56 -19 65 -24 12 -32 12 -50 1z"/>
<path d="M1695 215 c-45 -44 -21 -105 40 -105 62 0 87 71 39 109 -34 27 -50
26 -79 -4z m65 -24 c20 -38 -16 -74 -45 -45 -18 18 -18 20 -5 45 14 24 36 24
50 0z"/>
<path d="M1470 170 c0 -53 2 -60 20 -60 18 0 20 7 20 60 0 53 -2 60 -20 60
-18 0 -20 -7 -20 -60z"/>
</g>
</svg>
